<svg id="Layer_1" data-name="Layer 1" xmlns="http://www.w3.org/2000/svg" xmlns:xlink="http://www.w3.org/1999/xlink" viewBox="0 0 24 24"><defs><clipPath id="clip-path"><rect width="24" height="24" fill="#009dff" opacity="0"/></clipPath></defs><rect width="24" height="24" fill="#009dff" opacity="0"/><g clip-path="url(#clip-path)"><path d="M12,2A10,10,0,1,0,22,12,10,10,0,0,0,12,2Zm3,11H12a1,1,0,0,1-1-1V7a1,1,0,0,1,2,0v4h2a1,1,0,0,1,0,2Z" fill="#009dff" opacity="0.3"/><path d="M16,12a1,1,0,0,1-1,1H12a1,1,0,0,1-1-1V7a1,1,0,0,1,2,0v4h2A1,1,0,0,1,16,12Z" fill="#009dff"/></g></svg>