<svg id="Layer_1" data-name="Layer 1" xmlns="http://www.w3.org/2000/svg" xmlns:xlink="http://www.w3.org/1999/xlink" viewBox="0 0 24 24"><defs><clipPath id="clip-path"><rect width="24" height="24" fill="#15171a" opacity="0"/></clipPath></defs><rect width="24" height="24" fill="#15171a" opacity="0"/><g clip-path="url(#clip-path)"><path d="M19,5V16H5V5A3,3,0,0,1,8,2h8A3,3,0,0,1,19,5Z" fill="#15171a" opacity="0.3"/><path d="M5,16v3a3,3,0,0,0,3,3h8a3,3,0,0,0,3-3V16Zm7,4a1,1,0,1,1,1-1A1,1,0,0,1,12,20Z" fill="#15171a"/><circle cx="11.96" cy="19" r="1" fill="#15171a" opacity="0.3"/></g></svg>