<svg id="Layer_1" data-name="Layer 1" xmlns="http://www.w3.org/2000/svg" xmlns:xlink="http://www.w3.org/1999/xlink" viewBox="0 0 24 24"><defs><clipPath id="clip-path"><rect width="24" height="24" fill="#009dff" opacity="0"/></clipPath></defs><rect width="24" height="24" fill="#009dff" opacity="0"/><g clip-path="url(#clip-path)"><path d="M18.32,8.6A8,8,0,1,0,20,13.5,8,8,0,0,0,18.32,8.6ZM12,15.5a2,2,0,0,1-1-3.73V10.5a1,1,0,0,1,2,0v1.27a2,2,0,0,1-1,3.73Z" fill="#009dff" opacity="0.6"/><path d="M7.1,7.18A8,8,0,0,0,5.68,8.6L4.29,7.21A1,1,0,0,1,5.71,5.79Z" fill="#009dff"/><path d="M19.71,7.21,18.32,8.6A8,8,0,0,0,16.9,7.18l1.39-1.39a1,1,0,1,1,1.42,1.42Z" fill="#009dff"/><path d="M15,3.5a1,1,0,0,1-1,1H9.76a1,1,0,0,1,0-2H14A1,1,0,0,1,15,3.5Z" fill="#009dff"/><path d="M13,10.5v1.27a2,2,0,0,0-2,0V10.5a1,1,0,0,1,2,0Z" fill="#009dff" opacity="0.3"/><path d="M14,13.5a2,2,0,1,1-1-1.73A2,2,0,0,1,14,13.5Z" fill="#009dff"/></g></svg>